<svg xmlns="http://www.w3.org/2000/svg" version="1.1" xmlns:xlink="http://www.w3.org/1999/xlink" xmlns:svgjs="http://svgjs.com/svgjs" width="1860" height="1860" preserveAspectRatio="none" viewBox="0 0 1860 1860">
    <g mask="url(&quot;#SvgjsMask2516&quot;)" fill="none">
        <rect width="1860" height="1860" x="0" y="0" fill="url(#SvgjsLinearGradient2517)"></rect>
        <path d="M105.39 368.89L217.11 433.39L217.11 562.39L105.39 626.89L-6.33 562.39L-6.33 433.39zM217.11 562.39L328.83 626.89L328.83 755.89L217.11 820.39L105.39 755.89L105.39 626.89zM217.11 1723.39L328.83 1787.89L328.83 1916.89L217.11 1981.39L105.39 1916.89L105.39 1787.89zM328.83 -18.11L440.55 46.39L440.55 175.39L328.83 239.89L217.11 175.39L217.11 46.39zM328.83 368.89L440.55 433.39L440.55 562.39L328.83 626.89L217.11 562.39L217.11 433.39zM440.55 949.39L552.27 1013.89L552.27 1142.89L440.55 1207.39L328.83 1142.89L328.83 1013.89zM328.83 1142.89L440.55 1207.39L440.55 1336.39L328.83 1400.89L217.11 1336.39L217.11 1207.39zM552.27 755.89L663.99 820.39L663.99 949.39L552.27 1013.89L440.55 949.39L440.55 820.39zM775.71 1916.89L887.43 1981.39L887.43 2110.39L775.71 2174.89L663.99 2110.39L663.99 1981.39zM999.15 -18.11L1110.87 46.39L1110.87 175.39L999.15 239.89L887.43 175.39L887.43 46.39zM999.15 368.89L1110.87 433.39L1110.87 562.39L999.15 626.89L887.43 562.39L887.43 433.39zM999.15 1529.89L1110.87 1594.39L1110.87 1723.39L999.15 1787.89L887.43 1723.39L887.43 1594.39zM1110.87 1723.39L1222.59 1787.89L1222.59 1916.89L1110.87 1981.39L999.15 1916.89L999.15 1787.89zM1334.31 175.39L1446.04 239.89L1446.04 368.89L1334.31 433.39L1222.59 368.89L1222.59 239.89zM1222.59 368.89L1334.31 433.39L1334.31 562.39L1222.59 626.89L1110.87 562.39L1110.87 433.39zM1334.31 1723.39L1446.04 1787.89L1446.04 1916.89L1334.31 1981.39L1222.59 1916.89L1222.59 1787.89zM1446.04 -18.11L1557.76 46.39L1557.76 175.39L1446.04 239.89L1334.31 175.39L1334.31 46.39zM1557.76 175.39L1669.48 239.89L1669.48 368.89L1557.76 433.39L1446.04 368.89L1446.04 239.89zM1446.04 368.89L1557.76 433.39L1557.76 562.39L1446.04 626.89L1334.31 562.39L1334.31 433.39zM1446.04 1916.89L1557.76 1981.39L1557.76 2110.39L1446.04 2174.89L1334.31 2110.39L1334.31 1981.39zM1669.48 755.89L1781.2 820.39L1781.2 949.39L1669.48 1013.89L1557.76 949.39L1557.76 820.39zM1781.2 1723.39L1892.92 1787.89L1892.92 1916.89L1781.2 1981.39L1669.48 1916.89L1669.48 1787.89zM1892.92 368.89L2004.64 433.39L2004.64 562.39L1892.92 626.89L1781.2 562.39L1781.2 433.39zM2004.64 1723.39L2116.36 1787.89L2116.36 1916.89L2004.64 1981.39L1892.92 1916.89L1892.92 1787.89z" stroke="url(#SvgjsLinearGradient2518)" stroke-width="2"></path>
        <path d="M92.49 368.89 a12.9 12.9 0 1 0 25.8 0 a12.9 12.9 0 1 0 -25.8 0zM204.21 433.39 a12.9 12.9 0 1 0 25.8 0 a12.9 12.9 0 1 0 -25.8 0zM204.21 562.39 a12.9 12.9 0 1 0 25.8 0 a12.9 12.9 0 1 0 -25.8 0zM92.49 626.89 a12.9 12.9 0 1 0 25.8 0 a12.9 12.9 0 1 0 -25.8 0zM-19.23 562.39 a12.9 12.9 0 1 0 25.8 0 a12.9 12.9 0 1 0 -25.8 0zM-19.23 433.39 a12.9 12.9 0 1 0 25.8 0 a12.9 12.9 0 1 0 -25.8 0zM315.93 626.89 a12.9 12.9 0 1 0 25.8 0 a12.9 12.9 0 1 0 -25.8 0zM315.93 755.89 a12.9 12.9 0 1 0 25.8 0 a12.9 12.9 0 1 0 -25.8 0zM204.21 820.39 a12.9 12.9 0 1 0 25.8 0 a12.9 12.9 0 1 0 -25.8 0zM92.49 755.89 a12.9 12.9 0 1 0 25.8 0 a12.9 12.9 0 1 0 -25.8 0zM204.21 1723.39 a12.9 12.9 0 1 0 25.8 0 a12.9 12.9 0 1 0 -25.8 0zM315.93 1787.89 a12.9 12.9 0 1 0 25.8 0 a12.9 12.9 0 1 0 -25.8 0zM315.93 1916.89 a12.9 12.9 0 1 0 25.8 0 a12.9 12.9 0 1 0 -25.8 0zM204.21 1981.39 a12.9 12.9 0 1 0 25.8 0 a12.9 12.9 0 1 0 -25.8 0zM92.49 1916.89 a12.9 12.9 0 1 0 25.8 0 a12.9 12.9 0 1 0 -25.8 0zM92.49 1787.89 a12.9 12.9 0 1 0 25.8 0 a12.9 12.9 0 1 0 -25.8 0zM315.93 -18.11 a12.9 12.9 0 1 0 25.8 0 a12.9 12.9 0 1 0 -25.8 0zM427.65 46.39 a12.9 12.9 0 1 0 25.8 0 a12.9 12.9 0 1 0 -25.8 0zM427.65 175.39 a12.9 12.9 0 1 0 25.8 0 a12.9 12.9 0 1 0 -25.8 0zM315.93 239.89 a12.9 12.9 0 1 0 25.8 0 a12.9 12.9 0 1 0 -25.8 0zM204.21 175.39 a12.9 12.9 0 1 0 25.8 0 a12.9 12.9 0 1 0 -25.8 0zM204.21 46.39 a12.9 12.9 0 1 0 25.8 0 a12.9 12.9 0 1 0 -25.8 0zM315.93 368.89 a12.9 12.9 0 1 0 25.8 0 a12.9 12.9 0 1 0 -25.8 0zM427.65 433.39 a12.9 12.9 0 1 0 25.8 0 a12.9 12.9 0 1 0 -25.8 0zM427.65 562.39 a12.9 12.9 0 1 0 25.8 0 a12.9 12.9 0 1 0 -25.8 0zM427.65 949.39 a12.9 12.9 0 1 0 25.8 0 a12.9 12.9 0 1 0 -25.8 0zM539.37 1013.89 a12.9 12.9 0 1 0 25.8 0 a12.9 12.9 0 1 0 -25.8 0zM539.37 1142.89 a12.9 12.9 0 1 0 25.8 0 a12.9 12.9 0 1 0 -25.8 0zM427.65 1207.39 a12.9 12.9 0 1 0 25.8 0 a12.9 12.9 0 1 0 -25.8 0zM315.93 1142.89 a12.9 12.9 0 1 0 25.8 0 a12.9 12.9 0 1 0 -25.8 0zM315.93 1013.89 a12.9 12.9 0 1 0 25.8 0 a12.9 12.9 0 1 0 -25.8 0zM427.65 1336.39 a12.9 12.9 0 1 0 25.8 0 a12.9 12.9 0 1 0 -25.8 0zM315.93 1400.89 a12.9 12.9 0 1 0 25.8 0 a12.9 12.9 0 1 0 -25.8 0zM204.21 1336.39 a12.9 12.9 0 1 0 25.8 0 a12.9 12.9 0 1 0 -25.8 0zM204.21 1207.39 a12.9 12.9 0 1 0 25.8 0 a12.9 12.9 0 1 0 -25.8 0zM539.37 755.89 a12.9 12.9 0 1 0 25.8 0 a12.9 12.9 0 1 0 -25.8 0zM651.09 820.39 a12.9 12.9 0 1 0 25.8 0 a12.9 12.9 0 1 0 -25.8 0zM651.09 949.39 a12.9 12.9 0 1 0 25.8 0 a12.9 12.9 0 1 0 -25.8 0zM427.65 820.39 a12.9 12.9 0 1 0 25.8 0 a12.9 12.9 0 1 0 -25.8 0zM762.81 1916.89 a12.9 12.9 0 1 0 25.8 0 a12.9 12.9 0 1 0 -25.8 0zM874.53 1981.39 a12.9 12.9 0 1 0 25.8 0 a12.9 12.9 0 1 0 -25.8 0zM874.53 2110.39 a12.9 12.9 0 1 0 25.8 0 a12.9 12.9 0 1 0 -25.8 0zM762.81 2174.89 a12.9 12.9 0 1 0 25.8 0 a12.9 12.9 0 1 0 -25.8 0zM651.09 2110.39 a12.9 12.9 0 1 0 25.8 0 a12.9 12.9 0 1 0 -25.8 0zM651.09 1981.39 a12.9 12.9 0 1 0 25.8 0 a12.9 12.9 0 1 0 -25.8 0zM986.25 -18.11 a12.9 12.9 0 1 0 25.8 0 a12.9 12.9 0 1 0 -25.8 0zM1097.97 46.39 a12.9 12.9 0 1 0 25.8 0 a12.9 12.9 0 1 0 -25.8 0zM1097.97 175.39 a12.9 12.9 0 1 0 25.8 0 a12.9 12.9 0 1 0 -25.8 0zM986.25 239.89 a12.9 12.9 0 1 0 25.8 0 a12.9 12.9 0 1 0 -25.8 0zM874.53 175.39 a12.9 12.9 0 1 0 25.8 0 a12.9 12.9 0 1 0 -25.8 0zM874.53 46.39 a12.9 12.9 0 1 0 25.8 0 a12.9 12.9 0 1 0 -25.8 0zM986.25 368.89 a12.9 12.9 0 1 0 25.8 0 a12.9 12.9 0 1 0 -25.8 0zM1097.97 433.39 a12.9 12.9 0 1 0 25.8 0 a12.9 12.9 0 1 0 -25.8 0zM1097.97 562.39 a12.9 12.9 0 1 0 25.8 0 a12.9 12.9 0 1 0 -25.8 0zM986.25 626.89 a12.9 12.9 0 1 0 25.8 0 a12.9 12.9 0 1 0 -25.8 0zM874.53 562.39 a12.9 12.9 0 1 0 25.8 0 a12.9 12.9 0 1 0 -25.8 0zM874.53 433.39 a12.9 12.9 0 1 0 25.8 0 a12.9 12.9 0 1 0 -25.8 0zM986.25 1529.89 a12.9 12.9 0 1 0 25.8 0 a12.9 12.9 0 1 0 -25.8 0zM1097.97 1594.39 a12.9 12.9 0 1 0 25.8 0 a12.9 12.9 0 1 0 -25.8 0zM1097.97 1723.39 a12.9 12.9 0 1 0 25.8 0 a12.9 12.9 0 1 0 -25.8 0zM986.25 1787.89 a12.9 12.9 0 1 0 25.8 0 a12.9 12.9 0 1 0 -25.8 0zM874.53 1723.39 a12.9 12.9 0 1 0 25.8 0 a12.9 12.9 0 1 0 -25.8 0zM874.53 1594.39 a12.9 12.9 0 1 0 25.8 0 a12.9 12.9 0 1 0 -25.8 0zM1209.69 1787.89 a12.9 12.9 0 1 0 25.8 0 a12.9 12.9 0 1 0 -25.8 0zM1209.69 1916.89 a12.9 12.9 0 1 0 25.8 0 a12.9 12.9 0 1 0 -25.8 0zM1097.97 1981.39 a12.9 12.9 0 1 0 25.8 0 a12.9 12.9 0 1 0 -25.8 0zM986.25 1916.89 a12.9 12.9 0 1 0 25.8 0 a12.9 12.9 0 1 0 -25.8 0zM1321.41 175.39 a12.9 12.9 0 1 0 25.8 0 a12.9 12.9 0 1 0 -25.8 0zM1433.14 239.89 a12.9 12.9 0 1 0 25.8 0 a12.9 12.9 0 1 0 -25.8 0zM1433.14 368.89 a12.9 12.9 0 1 0 25.8 0 a12.9 12.9 0 1 0 -25.8 0zM1321.41 433.39 a12.9 12.9 0 1 0 25.8 0 a12.9 12.9 0 1 0 -25.8 0zM1209.69 368.89 a12.9 12.9 0 1 0 25.8 0 a12.9 12.9 0 1 0 -25.8 0zM1209.69 239.89 a12.9 12.9 0 1 0 25.8 0 a12.9 12.9 0 1 0 -25.8 0zM1321.41 562.39 a12.9 12.9 0 1 0 25.8 0 a12.9 12.9 0 1 0 -25.8 0zM1209.69 626.89 a12.9 12.9 0 1 0 25.8 0 a12.9 12.9 0 1 0 -25.8 0zM1321.41 1723.39 a12.9 12.9 0 1 0 25.8 0 a12.9 12.9 0 1 0 -25.8 0zM1433.14 1787.89 a12.9 12.9 0 1 0 25.8 0 a12.9 12.9 0 1 0 -25.8 0zM1433.14 1916.89 a12.9 12.9 0 1 0 25.8 0 a12.9 12.9 0 1 0 -25.8 0zM1321.41 1981.39 a12.9 12.9 0 1 0 25.8 0 a12.9 12.9 0 1 0 -25.8 0zM1433.14 -18.11 a12.9 12.9 0 1 0 25.8 0 a12.9 12.9 0 1 0 -25.8 0zM1544.86 46.39 a12.9 12.9 0 1 0 25.8 0 a12.9 12.9 0 1 0 -25.8 0zM1544.86 175.39 a12.9 12.9 0 1 0 25.8 0 a12.9 12.9 0 1 0 -25.8 0zM1321.41 46.39 a12.9 12.9 0 1 0 25.8 0 a12.9 12.9 0 1 0 -25.8 0zM1656.58 239.89 a12.9 12.9 0 1 0 25.8 0 a12.9 12.9 0 1 0 -25.8 0zM1656.58 368.89 a12.9 12.9 0 1 0 25.8 0 a12.9 12.9 0 1 0 -25.8 0zM1544.86 433.39 a12.9 12.9 0 1 0 25.8 0 a12.9 12.9 0 1 0 -25.8 0zM1544.86 562.39 a12.9 12.9 0 1 0 25.8 0 a12.9 12.9 0 1 0 -25.8 0zM1433.14 626.89 a12.9 12.9 0 1 0 25.8 0 a12.9 12.9 0 1 0 -25.8 0zM1544.86 1981.39 a12.9 12.9 0 1 0 25.8 0 a12.9 12.9 0 1 0 -25.8 0zM1544.86 2110.39 a12.9 12.9 0 1 0 25.8 0 a12.9 12.9 0 1 0 -25.8 0zM1433.14 2174.89 a12.9 12.9 0 1 0 25.8 0 a12.9 12.9 0 1 0 -25.8 0zM1321.41 2110.39 a12.9 12.9 0 1 0 25.8 0 a12.9 12.9 0 1 0 -25.8 0zM1656.58 755.89 a12.9 12.9 0 1 0 25.8 0 a12.9 12.9 0 1 0 -25.8 0zM1768.3 820.39 a12.9 12.9 0 1 0 25.8 0 a12.9 12.9 0 1 0 -25.8 0zM1768.3 949.39 a12.9 12.9 0 1 0 25.8 0 a12.9 12.9 0 1 0 -25.8 0zM1656.58 1013.89 a12.9 12.9 0 1 0 25.8 0 a12.9 12.9 0 1 0 -25.8 0zM1544.86 949.39 a12.9 12.9 0 1 0 25.8 0 a12.9 12.9 0 1 0 -25.8 0zM1544.86 820.39 a12.9 12.9 0 1 0 25.8 0 a12.9 12.9 0 1 0 -25.8 0zM1768.3 1723.39 a12.9 12.9 0 1 0 25.8 0 a12.9 12.9 0 1 0 -25.8 0zM1880.02 1787.89 a12.9 12.9 0 1 0 25.8 0 a12.9 12.9 0 1 0 -25.8 0zM1880.02 1916.89 a12.9 12.9 0 1 0 25.8 0 a12.9 12.9 0 1 0 -25.8 0zM1768.3 1981.39 a12.9 12.9 0 1 0 25.8 0 a12.9 12.9 0 1 0 -25.8 0zM1656.58 1916.89 a12.9 12.9 0 1 0 25.8 0 a12.9 12.9 0 1 0 -25.8 0zM1656.58 1787.89 a12.9 12.9 0 1 0 25.8 0 a12.9 12.9 0 1 0 -25.8 0zM1880.02 368.89 a12.9 12.9 0 1 0 25.8 0 a12.9 12.9 0 1 0 -25.8 0zM1991.74 433.39 a12.9 12.9 0 1 0 25.8 0 a12.9 12.9 0 1 0 -25.8 0zM1991.74 562.39 a12.9 12.9 0 1 0 25.8 0 a12.9 12.9 0 1 0 -25.8 0zM1880.02 626.89 a12.9 12.9 0 1 0 25.8 0 a12.9 12.9 0 1 0 -25.8 0zM1768.3 562.39 a12.9 12.9 0 1 0 25.8 0 a12.9 12.9 0 1 0 -25.8 0zM1768.3 433.39 a12.9 12.9 0 1 0 25.8 0 a12.9 12.9 0 1 0 -25.8 0zM1991.74 1723.39 a12.9 12.9 0 1 0 25.8 0 a12.9 12.9 0 1 0 -25.8 0zM2103.46 1787.89 a12.9 12.9 0 1 0 25.8 0 a12.9 12.9 0 1 0 -25.8 0zM2103.46 1916.89 a12.9 12.9 0 1 0 25.8 0 a12.9 12.9 0 1 0 -25.8 0zM1991.74 1981.39 a12.9 12.9 0 1 0 25.8 0 a12.9 12.9 0 1 0 -25.8 0z" fill="url(#SvgjsLinearGradient2518)"></path>
        <path d="M23.79 423.85L88.74 461.35L88.74 536.35L23.79 573.85L-41.16 536.35L-41.16 461.35zM88.74 761.35L153.7 798.85L153.7 873.85L88.74 911.35L23.79 873.85L23.79 798.85zM23.79 1548.85L88.74 1586.35L88.74 1661.35L23.79 1698.85L-41.16 1661.35L-41.16 1586.35zM218.65 86.35L283.61 123.85L283.61 198.85L218.65 236.35L153.7 198.85L153.7 123.85zM218.65 311.35L283.61 348.85L283.61 423.85L218.65 461.35L153.7 423.85L153.7 348.85zM153.7 423.85L218.65 461.35L218.65 536.35L153.7 573.85L88.74 536.35L88.74 461.35zM218.65 986.35L283.61 1023.85L283.61 1098.85L218.65 1136.35L153.7 1098.85L153.7 1023.85zM218.65 1211.35L283.61 1248.85L283.61 1323.85L218.65 1361.35L153.7 1323.85L153.7 1248.85zM218.65 1886.35L283.61 1923.85L283.61 1998.85L218.65 2036.35L153.7 1998.85L153.7 1923.85zM348.56 86.35L413.51 123.85L413.51 198.85L348.56 236.35L283.61 198.85L283.61 123.85zM348.56 536.35L413.51 573.85L413.51 648.85L348.56 686.35L283.61 648.85L283.61 573.85zM283.61 648.85L348.56 686.35L348.56 761.35L283.61 798.85L218.65 761.35L218.65 686.35zM348.56 761.35L413.51 798.85L413.51 873.85L348.56 911.35L283.61 873.85L283.61 798.85zM348.56 986.35L413.51 1023.85L413.51 1098.85L348.56 1136.35L283.61 1098.85L283.61 1023.85zM283.61 1773.85L348.56 1811.35L348.56 1886.35L283.61 1923.85L218.65 1886.35L218.65 1811.35zM348.56 1886.35L413.51 1923.85L413.51 1998.85L348.56 2036.35L283.61 1998.85L283.61 1923.85zM413.51 -26.15L478.47 11.35L478.47 86.35L413.51 123.85L348.56 86.35L348.56 11.35zM413.51 198.85L478.47 236.35L478.47 311.35L413.51 348.85L348.56 311.35L348.56 236.35zM413.51 873.85L478.47 911.35L478.47 986.35L413.51 1023.85L348.56 986.35L348.56 911.35zM478.47 986.35L543.42 1023.85L543.42 1098.85L478.47 1136.35L413.51 1098.85L413.51 1023.85zM543.42 -26.15L608.37 11.35L608.37 86.35L543.42 123.85L478.47 86.35L478.47 11.35zM608.37 761.35L673.33 798.85L673.33 873.85L608.37 911.35L543.42 873.85L543.42 798.85zM608.37 986.35L673.33 1023.85L673.33 1098.85L608.37 1136.35L543.42 1098.85L543.42 1023.85zM543.42 1098.85L608.37 1136.35L608.37 1211.35L543.42 1248.85L478.47 1211.35L478.47 1136.35zM608.37 1211.35L673.33 1248.85L673.33 1323.85L608.37 1361.35L543.42 1323.85L543.42 1248.85zM608.37 1886.35L673.33 1923.85L673.33 1998.85L608.37 2036.35L543.42 1998.85L543.42 1923.85zM738.28 986.35L803.24 1023.85L803.24 1098.85L738.28 1136.35L673.33 1098.85L673.33 1023.85zM673.33 1098.85L738.28 1136.35L738.28 1211.35L673.33 1248.85L608.37 1211.35L608.37 1136.35zM803.23 -26.15L868.19 11.35L868.19 86.35L803.23 123.85L738.28 86.35L738.28 11.35zM868.19 761.35L933.14 798.85L933.14 873.85L868.19 911.35L803.23 873.85L803.23 798.85zM868.19 986.35L933.14 1023.85L933.14 1098.85L868.19 1136.35L803.23 1098.85L803.23 1023.85zM868.19 1436.35L933.14 1473.85L933.14 1548.85L868.19 1586.35L803.23 1548.85L803.23 1473.85zM933.14 -26.15L998.1 11.35L998.1 86.35L933.14 123.85L868.19 86.35L868.19 11.35zM933.14 873.85L998.1 911.35L998.1 986.35L933.14 1023.85L868.19 986.35L868.19 911.35zM998.1 1886.35L1063.05 1923.85L1063.05 1998.85L998.1 2036.35L933.14 1998.85L933.14 1923.85zM1063.05 198.85L1128 236.35L1128 311.35L1063.05 348.85L998.1 311.35L998.1 236.35zM1128 311.35L1192.96 348.85L1192.96 423.85L1128 461.35L1063.05 423.85L1063.05 348.85zM1128 986.35L1192.96 1023.85L1192.96 1098.85L1128 1136.35L1063.05 1098.85L1063.05 1023.85zM1063.05 1323.85L1128 1361.35L1128 1436.35L1063.05 1473.85L998.1 1436.35L998.1 1361.35zM1192.96 -26.15L1257.91 11.35L1257.91 86.35L1192.96 123.85L1128 86.35L1128 11.35zM1257.91 761.35L1322.86 798.85L1322.86 873.85L1257.91 911.35L1192.96 873.85L1192.96 798.85zM1322.87 198.85L1387.82 236.35L1387.82 311.35L1322.87 348.85L1257.91 311.35L1257.91 236.35zM1387.82 536.35L1452.77 573.85L1452.77 648.85L1387.82 686.35L1322.87 648.85L1322.87 573.85zM1322.87 648.85L1387.82 686.35L1387.82 761.35L1322.87 798.85L1257.91 761.35L1257.91 686.35zM1387.82 761.35L1452.77 798.85L1452.77 873.85L1387.82 911.35L1322.87 873.85L1322.87 798.85zM1387.82 986.35L1452.77 1023.85L1452.77 1098.85L1387.82 1136.35L1322.87 1098.85L1322.87 1023.85zM1322.87 1098.85L1387.82 1136.35L1387.82 1211.35L1322.87 1248.85L1257.91 1211.35L1257.91 1136.35zM1387.82 1211.35L1452.77 1248.85L1452.77 1323.85L1387.82 1361.35L1322.87 1323.85L1322.87 1248.85zM1322.87 1548.85L1387.82 1586.35L1387.82 1661.35L1322.87 1698.85L1257.91 1661.35L1257.91 1586.35zM1322.87 1773.85L1387.82 1811.35L1387.82 1886.35L1322.87 1923.85L1257.91 1886.35L1257.91 1811.35zM1387.82 1886.35L1452.77 1923.85L1452.77 1998.85L1387.82 2036.35L1322.87 1998.85L1322.87 1923.85zM1452.77 -26.15L1517.73 11.35L1517.73 86.35L1452.77 123.85L1387.82 86.35L1387.82 11.35zM1452.77 423.85L1517.73 461.35L1517.73 536.35L1452.77 573.85L1387.82 536.35L1387.82 461.35zM1452.77 648.85L1517.73 686.35L1517.73 761.35L1452.77 798.85L1387.82 761.35L1387.82 686.35zM1452.77 873.85L1517.73 911.35L1517.73 986.35L1452.77 1023.85L1387.82 986.35L1387.82 911.35zM1517.73 986.35L1582.68 1023.85L1582.68 1098.85L1517.73 1136.35L1452.77 1098.85L1452.77 1023.85zM1452.77 1098.85L1517.73 1136.35L1517.73 1211.35L1452.77 1248.85L1387.82 1211.35L1387.82 1136.35zM1452.77 1323.85L1517.73 1361.35L1517.73 1436.35L1452.77 1473.85L1387.82 1436.35L1387.82 1361.35zM1517.73 1436.35L1582.68 1473.85L1582.68 1548.85L1517.73 1586.35L1452.77 1548.85L1452.77 1473.85zM1647.63 86.35L1712.59 123.85L1712.59 198.85L1647.63 236.35L1582.68 198.85L1582.68 123.85zM1647.63 761.35L1712.59 798.85L1712.59 873.85L1647.63 911.35L1582.68 873.85L1582.68 798.85zM1647.63 1886.35L1712.59 1923.85L1712.59 1998.85L1647.63 2036.35L1582.68 1998.85L1582.68 1923.85zM1712.59 423.85L1777.54 461.35L1777.54 536.35L1712.59 573.85L1647.63 536.35L1647.63 461.35zM1712.59 1323.85L1777.54 1361.35L1777.54 1436.35L1712.59 1473.85L1647.63 1436.35L1647.63 1361.35zM1777.54 1436.35L1842.49 1473.85L1842.49 1548.85L1777.54 1586.35L1712.59 1548.85L1712.59 1473.85zM1777.54 1661.35L1842.49 1698.85L1842.49 1773.85L1777.54 1811.35L1712.59 1773.85L1712.59 1698.85zM1842.49 -26.15L1907.45 11.35L1907.45 86.35L1842.49 123.85L1777.54 86.35L1777.54 11.35zM1842.49 198.85L1907.45 236.35L1907.45 311.35L1842.49 348.85L1777.54 311.35L1777.54 236.35zM1907.45 536.35L1972.4 573.85L1972.4 648.85L1907.45 686.35L1842.49 648.85L1842.49 573.85zM1842.49 648.85L1907.45 686.35L1907.45 761.35L1842.49 798.85L1777.54 761.35L1777.54 686.35zM1842.49 1098.85L1907.45 1136.35L1907.45 1211.35L1842.49 1248.85L1777.54 1211.35L1777.54 1136.35zM1907.45 1436.35L1972.4 1473.85L1972.4 1548.85L1907.45 1586.35L1842.49 1548.85L1842.49 1473.85z" stroke="url(#SvgjsLinearGradient2519)" stroke-width="2"></path>
        <path d="M16.29 423.85 a7.5 7.5 0 1 0 15 0 a7.5 7.5 0 1 0 -15 0zM81.24 461.35 a7.5 7.5 0 1 0 15 0 a7.5 7.5 0 1 0 -15 0zM81.24 536.35 a7.5 7.5 0 1 0 15 0 a7.5 7.5 0 1 0 -15 0zM16.29 573.85 a7.5 7.5 0 1 0 15 0 a7.5 7.5 0 1 0 -15 0zM-48.66 536.35 a7.5 7.5 0 1 0 15 0 a7.5 7.5 0 1 0 -15 0zM-48.66 461.35 a7.5 7.5 0 1 0 15 0 a7.5 7.5 0 1 0 -15 0zM81.24 761.35 a7.5 7.5 0 1 0 15 0 a7.5 7.5 0 1 0 -15 0zM146.2 798.85 a7.5 7.5 0 1 0 15 0 a7.5 7.5 0 1 0 -15 0zM146.2 873.85 a7.5 7.5 0 1 0 15 0 a7.5 7.5 0 1 0 -15 0zM81.24 911.35 a7.5 7.5 0 1 0 15 0 a7.5 7.5 0 1 0 -15 0zM16.29 873.85 a7.5 7.5 0 1 0 15 0 a7.5 7.5 0 1 0 -15 0zM16.29 798.85 a7.5 7.5 0 1 0 15 0 a7.5 7.5 0 1 0 -15 0zM16.29 1548.85 a7.5 7.5 0 1 0 15 0 a7.5 7.5 0 1 0 -15 0zM81.24 1586.35 a7.5 7.5 0 1 0 15 0 a7.5 7.5 0 1 0 -15 0zM81.24 1661.35 a7.5 7.5 0 1 0 15 0 a7.5 7.5 0 1 0 -15 0zM16.29 1698.85 a7.5 7.5 0 1 0 15 0 a7.5 7.5 0 1 0 -15 0zM-48.66 1661.35 a7.5 7.5 0 1 0 15 0 a7.5 7.5 0 1 0 -15 0zM-48.66 1586.35 a7.5 7.5 0 1 0 15 0 a7.5 7.5 0 1 0 -15 0zM211.15 86.35 a7.5 7.5 0 1 0 15 0 a7.5 7.5 0 1 0 -15 0zM276.11 123.85 a7.5 7.5 0 1 0 15 0 a7.5 7.5 0 1 0 -15 0zM276.11 198.85 a7.5 7.5 0 1 0 15 0 a7.5 7.5 0 1 0 -15 0zM211.15 236.35 a7.5 7.5 0 1 0 15 0 a7.5 7.5 0 1 0 -15 0zM146.2 198.85 a7.5 7.5 0 1 0 15 0 a7.5 7.5 0 1 0 -15 0zM146.2 123.85 a7.5 7.5 0 1 0 15 0 a7.5 7.5 0 1 0 -15 0zM211.15 311.35 a7.5 7.5 0 1 0 15 0 a7.5 7.5 0 1 0 -15 0zM276.11 348.85 a7.5 7.5 0 1 0 15 0 a7.5 7.5 0 1 0 -15 0zM276.11 423.85 a7.5 7.5 0 1 0 15 0 a7.5 7.5 0 1 0 -15 0zM211.15 461.35 a7.5 7.5 0 1 0 15 0 a7.5 7.5 0 1 0 -15 0zM146.2 423.85 a7.5 7.5 0 1 0 15 0 a7.5 7.5 0 1 0 -15 0zM146.2 348.85 a7.5 7.5 0 1 0 15 0 a7.5 7.5 0 1 0 -15 0zM211.15 536.35 a7.5 7.5 0 1 0 15 0 a7.5 7.5 0 1 0 -15 0zM146.2 573.85 a7.5 7.5 0 1 0 15 0 a7.5 7.5 0 1 0 -15 0zM211.15 986.35 a7.5 7.5 0 1 0 15 0 a7.5 7.5 0 1 0 -15 0zM276.11 1023.85 a7.5 7.5 0 1 0 15 0 a7.5 7.5 0 1 0 -15 0zM276.11 1098.85 a7.5 7.5 0 1 0 15 0 a7.5 7.5 0 1 0 -15 0zM211.15 1136.35 a7.5 7.5 0 1 0 15 0 a7.5 7.5 0 1 0 -15 0zM146.2 1098.85 a7.5 7.5 0 1 0 15 0 a7.5 7.5 0 1 0 -15 0zM146.2 1023.85 a7.5 7.5 0 1 0 15 0 a7.5 7.5 0 1 0 -15 0zM211.15 1211.35 a7.5 7.5 0 1 0 15 0 a7.5 7.5 0 1 0 -15 0zM276.11 1248.85 a7.5 7.5 0 1 0 15 0 a7.5 7.5 0 1 0 -15 0zM276.11 1323.85 a7.5 7.5 0 1 0 15 0 a7.5 7.5 0 1 0 -15 0zM211.15 1361.35 a7.5 7.5 0 1 0 15 0 a7.5 7.5 0 1 0 -15 0zM146.2 1323.85 a7.5 7.5 0 1 0 15 0 a7.5 7.5 0 1 0 -15 0zM146.2 1248.85 a7.5 7.5 0 1 0 15 0 a7.5 7.5 0 1 0 -15 0zM211.15 1886.35 a7.5 7.5 0 1 0 15 0 a7.5 7.5 0 1 0 -15 0zM276.11 1923.85 a7.5 7.5 0 1 0 15 0 a7.5 7.5 0 1 0 -15 0zM276.11 1998.85 a7.5 7.5 0 1 0 15 0 a7.5 7.5 0 1 0 -15 0zM211.15 2036.35 a7.5 7.5 0 1 0 15 0 a7.5 7.5 0 1 0 -15 0zM146.2 1998.85 a7.5 7.5 0 1 0 15 0 a7.5 7.5 0 1 0 -15 0zM146.2 1923.85 a7.5 7.5 0 1 0 15 0 a7.5 7.5 0 1 0 -15 0zM341.06 86.35 a7.5 7.5 0 1 0 15 0 a7.5 7.5 0 1 0 -15 0zM406.01 123.85 a7.5 7.5 0 1 0 15 0 a7.5 7.5 0 1 0 -15 0zM406.01 198.85 a7.5 7.5 0 1 0 15 0 a7.5 7.5 0 1 0 -15 0zM341.06 236.35 a7.5 7.5 0 1 0 15 0 a7.5 7.5 0 1 0 -15 0zM341.06 536.35 a7.5 7.5 0 1 0 15 0 a7.5 7.5 0 1 0 -15 0zM406.01 573.85 a7.5 7.5 0 1 0 15 0 a7.5 7.5 0 1 0 -15 0zM406.01 648.85 a7.5 7.5 0 1 0 15 0 a7.5 7.5 0 1 0 -15 0zM341.06 686.35 a7.5 7.5 0 1 0 15 0 a7.5 7.5 0 1 0 -15 0zM276.11 648.85 a7.5 7.5 0 1 0 15 0 a7.5 7.5 0 1 0 -15 0zM276.11 573.85 a7.5 7.5 0 1 0 15 0 a7.5 7.5 0 1 0 -15 0zM341.06 761.35 a7.5 7.5 0 1 0 15 0 a7.5 7.5 0 1 0 -15 0zM276.11 798.85 a7.5 7.5 0 1 0 15 0 a7.5 7.5 0 1 0 -15 0zM211.15 761.35 a7.5 7.5 0 1 0 15 0 a7.5 7.5 0 1 0 -15 0zM211.15 686.35 a7.5 7.5 0 1 0 15 0 a7.5 7.5 0 1 0 -15 0zM406.01 798.85 a7.5 7.5 0 1 0 15 0 a7.5 7.5 0 1 0 -15 0zM406.01 873.85 a7.5 7.5 0 1 0 15 0 a7.5 7.5 0 1 0 -15 0zM341.06 911.35 a7.5 7.5 0 1 0 15 0 a7.5 7.5 0 1 0 -15 0zM276.11 873.85 a7.5 7.5 0 1 0 15 0 a7.5 7.5 0 1 0 -15 0zM341.06 986.35 a7.5 7.5 0 1 0 15 0 a7.5 7.5 0 1 0 -15 0zM406.01 1023.85 a7.5 7.5 0 1 0 15 0 a7.5 7.5 0 1 0 -15 0zM406.01 1098.85 a7.5 7.5 0 1 0 15 0 a7.5 7.5 0 1 0 -15 0zM341.06 1136.35 a7.5 7.5 0 1 0 15 0 a7.5 7.5 0 1 0 -15 0zM276.11 1773.85 a7.5 7.5 0 1 0 15 0 a7.5 7.5 0 1 0 -15 0zM341.06 1811.35 a7.5 7.5 0 1 0 15 0 a7.5 7.5 0 1 0 -15 0zM341.06 1886.35 a7.5 7.5 0 1 0 15 0 a7.5 7.5 0 1 0 -15 0zM211.15 1811.35 a7.5 7.5 0 1 0 15 0 a7.5 7.5 0 1 0 -15 0zM406.01 1923.85 a7.5 7.5 0 1 0 15 0 a7.5 7.5 0 1 0 -15 0zM406.01 1998.85 a7.5 7.5 0 1 0 15 0 a7.5 7.5 0 1 0 -15 0zM341.06 2036.35 a7.5 7.5 0 1 0 15 0 a7.5 7.5 0 1 0 -15 0zM406.01 -26.15 a7.5 7.5 0 1 0 15 0 a7.5 7.5 0 1 0 -15 0zM470.97 11.35 a7.5 7.5 0 1 0 15 0 a7.5 7.5 0 1 0 -15 0zM470.97 86.35 a7.5 7.5 0 1 0 15 0 a7.5 7.5 0 1 0 -15 0zM341.06 11.35 a7.5 7.5 0 1 0 15 0 a7.5 7.5 0 1 0 -15 0zM470.97 236.35 a7.5 7.5 0 1 0 15 0 a7.5 7.5 0 1 0 -15 0zM470.97 311.35 a7.5 7.5 0 1 0 15 0 a7.5 7.5 0 1 0 -15 0zM406.01 348.85 a7.5 7.5 0 1 0 15 0 a7.5 7.5 0 1 0 -15 0zM341.06 311.35 a7.5 7.5 0 1 0 15 0 a7.5 7.5 0 1 0 -15 0zM470.97 911.35 a7.5 7.5 0 1 0 15 0 a7.5 7.5 0 1 0 -15 0zM470.97 986.35 a7.5 7.5 0 1 0 15 0 a7.5 7.5 0 1 0 -15 0zM535.92 1023.85 a7.5 7.5 0 1 0 15 0 a7.5 7.5 0 1 0 -15 0zM535.92 1098.85 a7.5 7.5 0 1 0 15 0 a7.5 7.5 0 1 0 -15 0zM470.97 1136.35 a7.5 7.5 0 1 0 15 0 a7.5 7.5 0 1 0 -15 0zM535.92 -26.15 a7.5 7.5 0 1 0 15 0 a7.5 7.5 0 1 0 -15 0zM600.87 11.35 a7.5 7.5 0 1 0 15 0 a7.5 7.5 0 1 0 -15 0zM600.87 86.35 a7.5 7.5 0 1 0 15 0 a7.5 7.5 0 1 0 -15 0zM535.92 123.85 a7.5 7.5 0 1 0 15 0 a7.5 7.5 0 1 0 -15 0zM600.87 761.35 a7.5 7.5 0 1 0 15 0 a7.5 7.5 0 1 0 -15 0zM665.83 798.85 a7.5 7.5 0 1 0 15 0 a7.5 7.5 0 1 0 -15 0zM665.83 873.85 a7.5 7.5 0 1 0 15 0 a7.5 7.5 0 1 0 -15 0zM600.87 911.35 a7.5 7.5 0 1 0 15 0 a7.5 7.5 0 1 0 -15 0zM535.92 873.85 a7.5 7.5 0 1 0 15 0 a7.5 7.5 0 1 0 -15 0zM535.92 798.85 a7.5 7.5 0 1 0 15 0 a7.5 7.5 0 1 0 -15 0zM600.87 986.35 a7.5 7.5 0 1 0 15 0 a7.5 7.5 0 1 0 -15 0zM665.83 1023.85 a7.5 7.5 0 1 0 15 0 a7.5 7.5 0 1 0 -15 0zM665.83 1098.85 a7.5 7.5 0 1 0 15 0 a7.5 7.5 0 1 0 -15 0zM600.87 1136.35 a7.5 7.5 0 1 0 15 0 a7.5 7.5 0 1 0 -15 0zM600.87 1211.35 a7.5 7.5 0 1 0 15 0 a7.5 7.5 0 1 0 -15 0zM535.92 1248.85 a7.5 7.5 0 1 0 15 0 a7.5 7.5 0 1 0 -15 0zM470.97 1211.35 a7.5 7.5 0 1 0 15 0 a7.5 7.5 0 1 0 -15 0zM665.83 1248.85 a7.5 7.5 0 1 0 15 0 a7.5 7.5 0 1 0 -15 0zM665.83 1323.85 a7.5 7.5 0 1 0 15 0 a7.5 7.5 0 1 0 -15 0zM600.87 1361.35 a7.5 7.5 0 1 0 15 0 a7.5 7.5 0 1 0 -15 0zM535.92 1323.85 a7.5 7.5 0 1 0 15 0 a7.5 7.5 0 1 0 -15 0zM600.87 1886.35 a7.5 7.5 0 1 0 15 0 a7.5 7.5 0 1 0 -15 0zM665.83 1923.85 a7.5 7.5 0 1 0 15 0 a7.5 7.5 0 1 0 -15 0zM665.83 1998.85 a7.5 7.5 0 1 0 15 0 a7.5 7.5 0 1 0 -15 0zM600.87 2036.35 a7.5 7.5 0 1 0 15 0 a7.5 7.5 0 1 0 -15 0zM535.92 1998.85 a7.5 7.5 0 1 0 15 0 a7.5 7.5 0 1 0 -15 0zM535.92 1923.85 a7.5 7.5 0 1 0 15 0 a7.5 7.5 0 1 0 -15 0zM730.78 986.35 a7.5 7.5 0 1 0 15 0 a7.5 7.5 0 1 0 -15 0zM795.74 1023.85 a7.5 7.5 0 1 0 15 0 a7.5 7.5 0 1 0 -15 0zM795.74 1098.85 a7.5 7.5 0 1 0 15 0 a7.5 7.5 0 1 0 -15 0zM730.78 1136.35 a7.5 7.5 0 1 0 15 0 a7.5 7.5 0 1 0 -15 0zM730.78 1211.35 a7.5 7.5 0 1 0 15 0 a7.5 7.5 0 1 0 -15 0zM795.73 -26.15 a7.5 7.5 0 1 0 15 0 a7.5 7.5 0 1 0 -15 0zM860.69 11.35 a7.5 7.5 0 1 0 15 0 a7.5 7.5 0 1 0 -15 0zM860.69 86.35 a7.5 7.5 0 1 0 15 0 a7.5 7.5 0 1 0 -15 0zM795.73 123.85 a7.5 7.5 0 1 0 15 0 a7.5 7.5 0 1 0 -15 0zM730.78 86.35 a7.5 7.5 0 1 0 15 0 a7.5 7.5 0 1 0 -15 0zM730.78 11.35 a7.5 7.5 0 1 0 15 0 a7.5 7.5 0 1 0 -15 0zM860.69 761.35 a7.5 7.5 0 1 0 15 0 a7.5 7.5 0 1 0 -15 0zM925.64 798.85 a7.5 7.5 0 1 0 15 0 a7.5 7.5 0 1 0 -15 0zM925.64 873.85 a7.5 7.5 0 1 0 15 0 a7.5 7.5 0 1 0 -15 0zM860.69 911.35 a7.5 7.5 0 1 0 15 0 a7.5 7.5 0 1 0 -15 0zM795.73 873.85 a7.5 7.5 0 1 0 15 0 a7.5 7.5 0 1 0 -15 0zM795.73 798.85 a7.5 7.5 0 1 0 15 0 a7.5 7.5 0 1 0 -15 0zM860.69 986.35 a7.5 7.5 0 1 0 15 0 a7.5 7.5 0 1 0 -15 0zM925.64 1023.85 a7.5 7.5 0 1 0 15 0 a7.5 7.5 0 1 0 -15 0zM925.64 1098.85 a7.5 7.5 0 1 0 15 0 a7.5 7.5 0 1 0 -15 0zM860.69 1136.35 a7.5 7.5 0 1 0 15 0 a7.5 7.5 0 1 0 -15 0zM795.73 1098.85 a7.5 7.5 0 1 0 15 0 a7.5 7.5 0 1 0 -15 0zM795.73 1023.85 a7.5 7.5 0 1 0 15 0 a7.5 7.5 0 1 0 -15 0zM860.69 1436.35 a7.5 7.5 0 1 0 15 0 a7.5 7.5 0 1 0 -15 0zM925.64 1473.85 a7.5 7.5 0 1 0 15 0 a7.5 7.5 0 1 0 -15 0zM925.64 1548.85 a7.5 7.5 0 1 0 15 0 a7.5 7.5 0 1 0 -15 0zM860.69 1586.35 a7.5 7.5 0 1 0 15 0 a7.5 7.5 0 1 0 -15 0zM795.73 1548.85 a7.5 7.5 0 1 0 15 0 a7.5 7.5 0 1 0 -15 0zM795.73 1473.85 a7.5 7.5 0 1 0 15 0 a7.5 7.5 0 1 0 -15 0zM925.64 -26.15 a7.5 7.5 0 1 0 15 0 a7.5 7.5 0 1 0 -15 0zM990.6 11.35 a7.5 7.5 0 1 0 15 0 a7.5 7.5 0 1 0 -15 0zM990.6 86.35 a7.5 7.5 0 1 0 15 0 a7.5 7.5 0 1 0 -15 0zM925.64 123.85 a7.5 7.5 0 1 0 15 0 a7.5 7.5 0 1 0 -15 0zM990.6 911.35 a7.5 7.5 0 1 0 15 0 a7.5 7.5 0 1 0 -15 0zM990.6 986.35 a7.5 7.5 0 1 0 15 0 a7.5 7.5 0 1 0 -15 0zM990.6 1886.35 a7.5 7.5 0 1 0 15 0 a7.5 7.5 0 1 0 -15 0zM1055.55 1923.85 a7.5 7.5 0 1 0 15 0 a7.5 7.5 0 1 0 -15 0zM1055.55 1998.85 a7.5 7.5 0 1 0 15 0 a7.5 7.5 0 1 0 -15 0zM990.6 2036.35 a7.5 7.5 0 1 0 15 0 a7.5 7.5 0 1 0 -15 0zM925.64 1998.85 a7.5 7.5 0 1 0 15 0 a7.5 7.5 0 1 0 -15 0zM925.64 1923.85 a7.5 7.5 0 1 0 15 0 a7.5 7.5 0 1 0 -15 0zM1055.55 198.85 a7.5 7.5 0 1 0 15 0 a7.5 7.5 0 1 0 -15 0zM1120.5 236.35 a7.5 7.5 0 1 0 15 0 a7.5 7.5 0 1 0 -15 0zM1120.5 311.35 a7.5 7.5 0 1 0 15 0 a7.5 7.5 0 1 0 -15 0zM1055.55 348.85 a7.5 7.5 0 1 0 15 0 a7.5 7.5 0 1 0 -15 0zM990.6 311.35 a7.5 7.5 0 1 0 15 0 a7.5 7.5 0 1 0 -15 0zM990.6 236.35 a7.5 7.5 0 1 0 15 0 a7.5 7.5 0 1 0 -15 0zM1185.46 348.85 a7.5 7.5 0 1 0 15 0 a7.5 7.5 0 1 0 -15 0zM1185.46 423.85 a7.5 7.5 0 1 0 15 0 a7.5 7.5 0 1 0 -15 0zM1120.5 461.35 a7.5 7.5 0 1 0 15 0 a7.5 7.5 0 1 0 -15 0zM1055.55 423.85 a7.5 7.5 0 1 0 15 0 a7.5 7.5 0 1 0 -15 0zM1120.5 986.35 a7.5 7.5 0 1 0 15 0 a7.5 7.5 0 1 0 -15 0zM1185.46 1023.85 a7.5 7.5 0 1 0 15 0 a7.5 7.5 0 1 0 -15 0zM1185.46 1098.85 a7.5 7.5 0 1 0 15 0 a7.5 7.5 0 1 0 -15 0zM1120.5 1136.35 a7.5 7.5 0 1 0 15 0 a7.5 7.5 0 1 0 -15 0zM1055.55 1098.85 a7.5 7.5 0 1 0 15 0 a7.5 7.5 0 1 0 -15 0zM1055.55 1023.85 a7.5 7.5 0 1 0 15 0 a7.5 7.5 0 1 0 -15 0zM1055.55 1323.85 a7.5 7.5 0 1 0 15 0 a7.5 7.5 0 1 0 -15 0zM1120.5 1361.35 a7.5 7.5 0 1 0 15 0 a7.5 7.5 0 1 0 -15 0zM1120.5 1436.35 a7.5 7.5 0 1 0 15 0 a7.5 7.5 0 1 0 -15 0zM1055.55 1473.85 a7.5 7.5 0 1 0 15 0 a7.5 7.5 0 1 0 -15 0zM990.6 1436.35 a7.5 7.5 0 1 0 15 0 a7.5 7.5 0 1 0 -15 0zM990.6 1361.35 a7.5 7.5 0 1 0 15 0 a7.5 7.5 0 1 0 -15 0zM1185.46 -26.15 a7.5 7.5 0 1 0 15 0 a7.5 7.5 0 1 0 -15 0zM1250.41 11.35 a7.5 7.5 0 1 0 15 0 a7.5 7.5 0 1 0 -15 0zM1250.41 86.35 a7.5 7.5 0 1 0 15 0 a7.5 7.5 0 1 0 -15 0zM1185.46 123.85 a7.5 7.5 0 1 0 15 0 a7.5 7.5 0 1 0 -15 0zM1120.5 86.35 a7.5 7.5 0 1 0 15 0 a7.5 7.5 0 1 0 -15 0zM1120.5 11.35 a7.5 7.5 0 1 0 15 0 a7.5 7.5 0 1 0 -15 0zM1250.41 761.35 a7.5 7.5 0 1 0 15 0 a7.5 7.5 0 1 0 -15 0zM1315.36 798.85 a7.5 7.5 0 1 0 15 0 a7.5 7.5 0 1 0 -15 0zM1315.36 873.85 a7.5 7.5 0 1 0 15 0 a7.5 7.5 0 1 0 -15 0zM1250.41 911.35 a7.5 7.5 0 1 0 15 0 a7.5 7.5 0 1 0 -15 0zM1185.46 873.85 a7.5 7.5 0 1 0 15 0 a7.5 7.5 0 1 0 -15 0zM1185.46 798.85 a7.5 7.5 0 1 0 15 0 a7.5 7.5 0 1 0 -15 0zM1315.37 198.85 a7.5 7.5 0 1 0 15 0 a7.5 7.5 0 1 0 -15 0zM1380.32 236.35 a7.5 7.5 0 1 0 15 0 a7.5 7.5 0 1 0 -15 0zM1380.32 311.35 a7.5 7.5 0 1 0 15 0 a7.5 7.5 0 1 0 -15 0zM1315.37 348.85 a7.5 7.5 0 1 0 15 0 a7.5 7.5 0 1 0 -15 0zM1250.41 311.35 a7.5 7.5 0 1 0 15 0 a7.5 7.5 0 1 0 -15 0zM1250.41 236.35 a7.5 7.5 0 1 0 15 0 a7.5 7.5 0 1 0 -15 0zM1380.32 536.35 a7.5 7.5 0 1 0 15 0 a7.5 7.5 0 1 0 -15 0zM1445.27 573.85 a7.5 7.5 0 1 0 15 0 a7.5 7.5 0 1 0 -15 0zM1445.27 648.85 a7.5 7.5 0 1 0 15 0 a7.5 7.5 0 1 0 -15 0zM1380.32 686.35 a7.5 7.5 0 1 0 15 0 a7.5 7.5 0 1 0 -15 0zM1315.37 648.85 a7.5 7.5 0 1 0 15 0 a7.5 7.5 0 1 0 -15 0zM1315.37 573.85 a7.5 7.5 0 1 0 15 0 a7.5 7.5 0 1 0 -15 0zM1380.32 761.35 a7.5 7.5 0 1 0 15 0 a7.5 7.5 0 1 0 -15 0zM1315.37 798.85 a7.5 7.5 0 1 0 15 0 a7.5 7.5 0 1 0 -15 0zM1250.41 686.35 a7.5 7.5 0 1 0 15 0 a7.5 7.5 0 1 0 -15 0zM1445.27 798.85 a7.5 7.5 0 1 0 15 0 a7.5 7.5 0 1 0 -15 0zM1445.27 873.85 a7.5 7.5 0 1 0 15 0 a7.5 7.5 0 1 0 -15 0zM1380.32 911.35 a7.5 7.5 0 1 0 15 0 a7.5 7.5 0 1 0 -15 0zM1315.37 873.85 a7.5 7.5 0 1 0 15 0 a7.5 7.5 0 1 0 -15 0zM1380.32 986.35 a7.5 7.5 0 1 0 15 0 a7.5 7.5 0 1 0 -15 0zM1445.27 1023.85 a7.5 7.5 0 1 0 15 0 a7.5 7.5 0 1 0 -15 0zM1445.27 1098.85 a7.5 7.5 0 1 0 15 0 a7.5 7.5 0 1 0 -15 0zM1380.32 1136.35 a7.5 7.5 0 1 0 15 0 a7.5 7.5 0 1 0 -15 0zM1315.37 1098.85 a7.5 7.5 0 1 0 15 0 a7.5 7.5 0 1 0 -15 0zM1315.37 1023.85 a7.5 7.5 0 1 0 15 0 a7.5 7.5 0 1 0 -15 0zM1380.32 1211.35 a7.5 7.5 0 1 0 15 0 a7.5 7.5 0 1 0 -15 0zM1315.37 1248.85 a7.5 7.5 0 1 0 15 0 a7.5 7.5 0 1 0 -15 0zM1250.41 1211.35 a7.5 7.5 0 1 0 15 0 a7.5 7.5 0 1 0 -15 0zM1250.41 1136.35 a7.5 7.5 0 1 0 15 0 a7.5 7.5 0 1 0 -15 0zM1445.27 1248.85 a7.5 7.5 0 1 0 15 0 a7.5 7.5 0 1 0 -15 0zM1445.27 1323.85 a7.5 7.5 0 1 0 15 0 a7.5 7.5 0 1 0 -15 0zM1380.32 1361.35 a7.5 7.5 0 1 0 15 0 a7.5 7.5 0 1 0 -15 0zM1315.37 1323.85 a7.5 7.5 0 1 0 15 0 a7.5 7.5 0 1 0 -15 0zM1315.37 1548.85 a7.5 7.5 0 1 0 15 0 a7.5 7.5 0 1 0 -15 0zM1380.32 1586.35 a7.5 7.5 0 1 0 15 0 a7.5 7.5 0 1 0 -15 0zM1380.32 1661.35 a7.5 7.5 0 1 0 15 0 a7.5 7.5 0 1 0 -15 0zM1315.37 1698.85 a7.5 7.5 0 1 0 15 0 a7.5 7.5 0 1 0 -15 0zM1250.41 1661.35 a7.5 7.5 0 1 0 15 0 a7.5 7.5 0 1 0 -15 0zM1250.41 1586.35 a7.5 7.5 0 1 0 15 0 a7.5 7.5 0 1 0 -15 0zM1315.37 1773.85 a7.5 7.5 0 1 0 15 0 a7.5 7.5 0 1 0 -15 0zM1380.32 1811.35 a7.5 7.5 0 1 0 15 0 a7.5 7.5 0 1 0 -15 0zM1380.32 1886.35 a7.5 7.5 0 1 0 15 0 a7.5 7.5 0 1 0 -15 0zM1315.37 1923.85 a7.5 7.5 0 1 0 15 0 a7.5 7.5 0 1 0 -15 0zM1250.41 1886.35 a7.5 7.5 0 1 0 15 0 a7.5 7.5 0 1 0 -15 0zM1250.41 1811.35 a7.5 7.5 0 1 0 15 0 a7.5 7.5 0 1 0 -15 0zM1445.27 1923.85 a7.5 7.5 0 1 0 15 0 a7.5 7.5 0 1 0 -15 0zM1445.27 1998.85 a7.5 7.5 0 1 0 15 0 a7.5 7.5 0 1 0 -15 0zM1380.32 2036.35 a7.5 7.5 0 1 0 15 0 a7.5 7.5 0 1 0 -15 0zM1315.37 1998.85 a7.5 7.5 0 1 0 15 0 a7.5 7.5 0 1 0 -15 0zM1445.27 -26.15 a7.5 7.5 0 1 0 15 0 a7.5 7.5 0 1 0 -15 0zM1510.23 11.35 a7.5 7.5 0 1 0 15 0 a7.5 7.5 0 1 0 -15 0zM1510.23 86.35 a7.5 7.5 0 1 0 15 0 a7.5 7.5 0 1 0 -15 0zM1445.27 123.85 a7.5 7.5 0 1 0 15 0 a7.5 7.5 0 1 0 -15 0zM1380.32 86.35 a7.5 7.5 0 1 0 15 0 a7.5 7.5 0 1 0 -15 0zM1380.32 11.35 a7.5 7.5 0 1 0 15 0 a7.5 7.5 0 1 0 -15 0zM1445.27 423.85 a7.5 7.5 0 1 0 15 0 a7.5 7.5 0 1 0 -15 0zM1510.23 461.35 a7.5 7.5 0 1 0 15 0 a7.5 7.5 0 1 0 -15 0zM1510.23 536.35 a7.5 7.5 0 1 0 15 0 a7.5 7.5 0 1 0 -15 0zM1380.32 461.35 a7.5 7.5 0 1 0 15 0 a7.5 7.5 0 1 0 -15 0zM1510.23 686.35 a7.5 7.5 0 1 0 15 0 a7.5 7.5 0 1 0 -15 0zM1510.23 761.35 a7.5 7.5 0 1 0 15 0 a7.5 7.5 0 1 0 -15 0zM1510.23 911.35 a7.5 7.5 0 1 0 15 0 a7.5 7.5 0 1 0 -15 0zM1510.23 986.35 a7.5 7.5 0 1 0 15 0 a7.5 7.5 0 1 0 -15 0zM1575.18 1023.85 a7.5 7.5 0 1 0 15 0 a7.5 7.5 0 1 0 -15 0zM1575.18 1098.85 a7.5 7.5 0 1 0 15 0 a7.5 7.5 0 1 0 -15 0zM1510.23 1136.35 a7.5 7.5 0 1 0 15 0 a7.5 7.5 0 1 0 -15 0zM1510.23 1211.35 a7.5 7.5 0 1 0 15 0 a7.5 7.5 0 1 0 -15 0zM1510.23 1361.35 a7.5 7.5 0 1 0 15 0 a7.5 7.5 0 1 0 -15 0zM1510.23 1436.35 a7.5 7.5 0 1 0 15 0 a7.5 7.5 0 1 0 -15 0zM1445.27 1473.85 a7.5 7.5 0 1 0 15 0 a7.5 7.5 0 1 0 -15 0zM1380.32 1436.35 a7.5 7.5 0 1 0 15 0 a7.5 7.5 0 1 0 -15 0zM1575.18 1473.85 a7.5 7.5 0 1 0 15 0 a7.5 7.5 0 1 0 -15 0zM1575.18 1548.85 a7.5 7.5 0 1 0 15 0 a7.5 7.5 0 1 0 -15 0zM1510.23 1586.35 a7.5 7.5 0 1 0 15 0 a7.5 7.5 0 1 0 -15 0zM1445.27 1548.85 a7.5 7.5 0 1 0 15 0 a7.5 7.5 0 1 0 -15 0zM1640.13 86.35 a7.5 7.5 0 1 0 15 0 a7.5 7.5 0 1 0 -15 0zM1705.09 123.85 a7.5 7.5 0 1 0 15 0 a7.5 7.5 0 1 0 -15 0zM1705.09 198.85 a7.5 7.5 0 1 0 15 0 a7.5 7.5 0 1 0 -15 0zM1640.13 236.35 a7.5 7.5 0 1 0 15 0 a7.5 7.5 0 1 0 -15 0zM1575.18 198.85 a7.5 7.5 0 1 0 15 0 a7.5 7.5 0 1 0 -15 0zM1575.18 123.85 a7.5 7.5 0 1 0 15 0 a7.5 7.5 0 1 0 -15 0zM1640.13 761.35 a7.5 7.5 0 1 0 15 0 a7.5 7.5 0 1 0 -15 0zM1705.09 798.85 a7.5 7.5 0 1 0 15 0 a7.5 7.5 0 1 0 -15 0zM1705.09 873.85 a7.5 7.5 0 1 0 15 0 a7.5 7.5 0 1 0 -15 0zM1640.13 911.35 a7.5 7.5 0 1 0 15 0 a7.5 7.5 0 1 0 -15 0zM1575.18 873.85 a7.5 7.5 0 1 0 15 0 a7.5 7.5 0 1 0 -15 0zM1575.18 798.85 a7.5 7.5 0 1 0 15 0 a7.5 7.5 0 1 0 -15 0zM1640.13 1886.35 a7.5 7.5 0 1 0 15 0 a7.5 7.5 0 1 0 -15 0zM1705.09 1923.85 a7.5 7.5 0 1 0 15 0 a7.5 7.5 0 1 0 -15 0zM1705.09 1998.85 a7.5 7.5 0 1 0 15 0 a7.5 7.5 0 1 0 -15 0zM1640.13 2036.35 a7.5 7.5 0 1 0 15 0 a7.5 7.5 0 1 0 -15 0zM1575.18 1998.85 a7.5 7.5 0 1 0 15 0 a7.5 7.5 0 1 0 -15 0zM1575.18 1923.85 a7.5 7.5 0 1 0 15 0 a7.5 7.5 0 1 0 -15 0zM1705.09 423.85 a7.5 7.5 0 1 0 15 0 a7.5 7.5 0 1 0 -15 0zM1770.04 461.35 a7.5 7.5 0 1 0 15 0 a7.5 7.5 0 1 0 -15 0zM1770.04 536.35 a7.5 7.5 0 1 0 15 0 a7.5 7.5 0 1 0 -15 0zM1705.09 573.85 a7.5 7.5 0 1 0 15 0 a7.5 7.5 0 1 0 -15 0zM1640.13 536.35 a7.5 7.5 0 1 0 15 0 a7.5 7.5 0 1 0 -15 0zM1640.13 461.35 a7.5 7.5 0 1 0 15 0 a7.5 7.5 0 1 0 -15 0zM1705.09 1323.85 a7.5 7.5 0 1 0 15 0 a7.5 7.5 0 1 0 -15 0zM1770.04 1361.35 a7.5 7.5 0 1 0 15 0 a7.5 7.5 0 1 0 -15 0zM1770.04 1436.35 a7.5 7.5 0 1 0 15 0 a7.5 7.5 0 1 0 -15 0zM1705.09 1473.85 a7.5 7.5 0 1 0 15 0 a7.5 7.5 0 1 0 -15 0zM1640.13 1436.35 a7.5 7.5 0 1 0 15 0 a7.5 7.5 0 1 0 -15 0zM1640.13 1361.35 a7.5 7.5 0 1 0 15 0 a7.5 7.5 0 1 0 -15 0zM1834.99 1473.85 a7.5 7.5 0 1 0 15 0 a7.5 7.5 0 1 0 -15 0zM1834.99 1548.85 a7.5 7.5 0 1 0 15 0 a7.5 7.5 0 1 0 -15 0zM1770.04 1586.35 a7.5 7.5 0 1 0 15 0 a7.5 7.5 0 1 0 -15 0zM1705.09 1548.85 a7.5 7.5 0 1 0 15 0 a7.5 7.5 0 1 0 -15 0zM1770.04 1661.35 a7.5 7.5 0 1 0 15 0 a7.5 7.5 0 1 0 -15 0zM1834.99 1698.85 a7.5 7.5 0 1 0 15 0 a7.5 7.5 0 1 0 -15 0zM1834.99 1773.85 a7.5 7.5 0 1 0 15 0 a7.5 7.5 0 1 0 -15 0zM1770.04 1811.35 a7.5 7.5 0 1 0 15 0 a7.5 7.5 0 1 0 -15 0zM1705.09 1773.85 a7.5 7.5 0 1 0 15 0 a7.5 7.5 0 1 0 -15 0zM1705.09 1698.85 a7.5 7.5 0 1 0 15 0 a7.5 7.5 0 1 0 -15 0zM1834.99 -26.15 a7.5 7.5 0 1 0 15 0 a7.5 7.5 0 1 0 -15 0zM1899.95 11.35 a7.5 7.5 0 1 0 15 0 a7.5 7.5 0 1 0 -15 0zM1899.95 86.35 a7.5 7.5 0 1 0 15 0 a7.5 7.5 0 1 0 -15 0zM1834.99 123.85 a7.5 7.5 0 1 0 15 0 a7.5 7.5 0 1 0 -15 0zM1770.04 86.35 a7.5 7.5 0 1 0 15 0 a7.5 7.5 0 1 0 -15 0zM1770.04 11.35 a7.5 7.5 0 1 0 15 0 a7.5 7.5 0 1 0 -15 0zM1834.99 198.85 a7.5 7.5 0 1 0 15 0 a7.5 7.5 0 1 0 -15 0zM1899.95 236.35 a7.5 7.5 0 1 0 15 0 a7.5 7.5 0 1 0 -15 0zM1899.95 311.35 a7.5 7.5 0 1 0 15 0 a7.5 7.5 0 1 0 -15 0zM1834.99 348.85 a7.5 7.5 0 1 0 15 0 a7.5 7.5 0 1 0 -15 0zM1770.04 311.35 a7.5 7.5 0 1 0 15 0 a7.5 7.5 0 1 0 -15 0zM1770.04 236.35 a7.5 7.5 0 1 0 15 0 a7.5 7.5 0 1 0 -15 0zM1899.95 536.35 a7.5 7.5 0 1 0 15 0 a7.5 7.5 0 1 0 -15 0zM1964.9 573.85 a7.5 7.5 0 1 0 15 0 a7.5 7.5 0 1 0 -15 0zM1964.9 648.85 a7.5 7.5 0 1 0 15 0 a7.5 7.5 0 1 0 -15 0zM1899.95 686.35 a7.5 7.5 0 1 0 15 0 a7.5 7.5 0 1 0 -15 0zM1834.99 648.85 a7.5 7.5 0 1 0 15 0 a7.5 7.5 0 1 0 -15 0zM1834.99 573.85 a7.5 7.5 0 1 0 15 0 a7.5 7.5 0 1 0 -15 0zM1899.95 761.35 a7.5 7.5 0 1 0 15 0 a7.5 7.5 0 1 0 -15 0zM1834.99 798.85 a7.5 7.5 0 1 0 15 0 a7.5 7.5 0 1 0 -15 0zM1770.04 761.35 a7.5 7.5 0 1 0 15 0 a7.5 7.5 0 1 0 -15 0zM1770.04 686.35 a7.5 7.5 0 1 0 15 0 a7.5 7.5 0 1 0 -15 0zM1834.99 1098.85 a7.5 7.5 0 1 0 15 0 a7.5 7.5 0 1 0 -15 0zM1899.95 1136.35 a7.5 7.5 0 1 0 15 0 a7.5 7.5 0 1 0 -15 0zM1899.95 1211.35 a7.5 7.5 0 1 0 15 0 a7.5 7.5 0 1 0 -15 0zM1834.99 1248.85 a7.5 7.5 0 1 0 15 0 a7.5 7.5 0 1 0 -15 0zM1770.04 1211.35 a7.5 7.5 0 1 0 15 0 a7.5 7.5 0 1 0 -15 0zM1770.04 1136.35 a7.5 7.5 0 1 0 15 0 a7.5 7.5 0 1 0 -15 0zM1899.95 1436.35 a7.5 7.5 0 1 0 15 0 a7.5 7.5 0 1 0 -15 0zM1964.9 1473.85 a7.5 7.5 0 1 0 15 0 a7.5 7.5 0 1 0 -15 0zM1964.9 1548.85 a7.5 7.5 0 1 0 15 0 a7.5 7.5 0 1 0 -15 0zM1899.95 1586.35 a7.5 7.5 0 1 0 15 0 a7.5 7.5 0 1 0 -15 0z" fill="url(#SvgjsLinearGradient2519)"></path>
        <path d="M197.9 647.34L355.52 738.34L355.52 920.34L197.9 1011.34L40.28 920.34L40.28 738.34zM355.52 374.34L513.14 465.34L513.14 647.34L355.52 738.34L197.9 647.34L197.9 465.34zM355.52 920.34L513.14 1011.34L513.14 1193.34L355.52 1284.34L197.9 1193.34L197.9 1011.34zM670.76 -171.66L828.39 -80.66L828.39 101.34L670.76 192.34L513.14 101.34L513.14 -80.66zM670.76 374.34L828.39 465.34L828.39 647.34L670.76 738.34L513.14 647.34L513.14 465.34zM670.76 1466.34L828.39 1557.34L828.39 1739.34L670.76 1830.34L513.14 1739.34L513.14 1557.34zM986.01 374.34L1143.63 465.34L1143.63 647.34L986.01 738.34L828.39 647.34L828.39 465.34zM1458.87 101.34L1616.49 192.34L1616.49 374.34L1458.87 465.34L1301.25 374.34L1301.25 192.34zM1301.25 920.34L1458.87 1011.34L1458.87 1193.34L1301.25 1284.34L1143.63 1193.34L1143.63 1011.34zM1616.49 920.34L1774.11 1011.34L1774.11 1193.34L1616.49 1284.34L1458.87 1193.34L1458.87 1011.34zM1774.11 1193.34L1931.73 1284.34L1931.73 1466.34L1774.11 1557.34L1616.49 1466.34L1616.49 1284.34zM1774.11 1739.34L1931.73 1830.34L1931.73 2012.34L1774.11 2103.34L1616.49 2012.34L1616.49 1830.34z" stroke="rgba(6, 80, 156, 0.93)" stroke-width="2"></path>
        <path d="M179.7 647.34 a18.2 18.2 0 1 0 36.4 0 a18.2 18.2 0 1 0 -36.4 0zM337.32 738.34 a18.2 18.2 0 1 0 36.4 0 a18.2 18.2 0 1 0 -36.4 0zM337.32 920.34 a18.2 18.2 0 1 0 36.4 0 a18.2 18.2 0 1 0 -36.4 0zM179.7 1011.34 a18.2 18.2 0 1 0 36.4 0 a18.2 18.2 0 1 0 -36.4 0zM22.08 920.34 a18.2 18.2 0 1 0 36.4 0 a18.2 18.2 0 1 0 -36.4 0zM22.08 738.34 a18.2 18.2 0 1 0 36.4 0 a18.2 18.2 0 1 0 -36.4 0zM337.32 374.34 a18.2 18.2 0 1 0 36.4 0 a18.2 18.2 0 1 0 -36.4 0zM494.94 465.34 a18.2 18.2 0 1 0 36.4 0 a18.2 18.2 0 1 0 -36.4 0zM494.94 647.34 a18.2 18.2 0 1 0 36.4 0 a18.2 18.2 0 1 0 -36.4 0zM179.7 465.34 a18.2 18.2 0 1 0 36.4 0 a18.2 18.2 0 1 0 -36.4 0zM494.94 1011.34 a18.2 18.2 0 1 0 36.4 0 a18.2 18.2 0 1 0 -36.4 0zM494.94 1193.34 a18.2 18.2 0 1 0 36.4 0 a18.2 18.2 0 1 0 -36.4 0zM337.32 1284.34 a18.2 18.2 0 1 0 36.4 0 a18.2 18.2 0 1 0 -36.4 0zM179.7 1193.34 a18.2 18.2 0 1 0 36.4 0 a18.2 18.2 0 1 0 -36.4 0zM652.56 -171.66 a18.2 18.2 0 1 0 36.4 0 a18.2 18.2 0 1 0 -36.4 0zM810.19 -80.66 a18.2 18.2 0 1 0 36.4 0 a18.2 18.2 0 1 0 -36.4 0zM810.19 101.34 a18.2 18.2 0 1 0 36.4 0 a18.2 18.2 0 1 0 -36.4 0zM652.56 192.34 a18.2 18.2 0 1 0 36.4 0 a18.2 18.2 0 1 0 -36.4 0zM494.94 101.34 a18.2 18.2 0 1 0 36.4 0 a18.2 18.2 0 1 0 -36.4 0zM494.94 -80.66 a18.2 18.2 0 1 0 36.4 0 a18.2 18.2 0 1 0 -36.4 0zM652.56 374.34 a18.2 18.2 0 1 0 36.4 0 a18.2 18.2 0 1 0 -36.4 0zM810.19 465.34 a18.2 18.2 0 1 0 36.4 0 a18.2 18.2 0 1 0 -36.4 0zM810.19 647.34 a18.2 18.2 0 1 0 36.4 0 a18.2 18.2 0 1 0 -36.4 0zM652.56 738.34 a18.2 18.2 0 1 0 36.4 0 a18.2 18.2 0 1 0 -36.4 0zM652.56 1466.34 a18.2 18.2 0 1 0 36.4 0 a18.2 18.2 0 1 0 -36.4 0zM810.19 1557.34 a18.2 18.2 0 1 0 36.4 0 a18.2 18.2 0 1 0 -36.4 0zM810.19 1739.34 a18.2 18.2 0 1 0 36.4 0 a18.2 18.2 0 1 0 -36.4 0zM652.56 1830.34 a18.2 18.2 0 1 0 36.4 0 a18.2 18.2 0 1 0 -36.4 0zM494.94 1739.34 a18.2 18.2 0 1 0 36.4 0 a18.2 18.2 0 1 0 -36.4 0zM494.94 1557.34 a18.2 18.2 0 1 0 36.4 0 a18.2 18.2 0 1 0 -36.4 0zM967.81 374.34 a18.2 18.2 0 1 0 36.4 0 a18.2 18.2 0 1 0 -36.4 0zM1125.43 465.34 a18.2 18.2 0 1 0 36.4 0 a18.2 18.2 0 1 0 -36.4 0zM1125.43 647.34 a18.2 18.2 0 1 0 36.4 0 a18.2 18.2 0 1 0 -36.4 0zM967.81 738.34 a18.2 18.2 0 1 0 36.4 0 a18.2 18.2 0 1 0 -36.4 0zM1440.67 101.34 a18.2 18.2 0 1 0 36.4 0 a18.2 18.2 0 1 0 -36.4 0zM1598.29 192.34 a18.2 18.2 0 1 0 36.4 0 a18.2 18.2 0 1 0 -36.4 0zM1598.29 374.34 a18.2 18.2 0 1 0 36.4 0 a18.2 18.2 0 1 0 -36.4 0zM1440.67 465.34 a18.2 18.2 0 1 0 36.4 0 a18.2 18.2 0 1 0 -36.4 0zM1283.05 374.34 a18.2 18.2 0 1 0 36.4 0 a18.2 18.2 0 1 0 -36.4 0zM1283.05 192.34 a18.2 18.2 0 1 0 36.4 0 a18.2 18.2 0 1 0 -36.4 0zM1283.05 920.34 a18.2 18.2 0 1 0 36.4 0 a18.2 18.2 0 1 0 -36.4 0zM1440.67 1011.34 a18.2 18.2 0 1 0 36.4 0 a18.2 18.2 0 1 0 -36.4 0zM1440.67 1193.34 a18.2 18.2 0 1 0 36.4 0 a18.2 18.2 0 1 0 -36.4 0zM1283.05 1284.34 a18.2 18.2 0 1 0 36.4 0 a18.2 18.2 0 1 0 -36.4 0zM1125.43 1193.34 a18.2 18.2 0 1 0 36.4 0 a18.2 18.2 0 1 0 -36.4 0zM1125.43 1011.34 a18.2 18.2 0 1 0 36.4 0 a18.2 18.2 0 1 0 -36.4 0zM1598.29 920.34 a18.2 18.2 0 1 0 36.4 0 a18.2 18.2 0 1 0 -36.4 0zM1755.91 1011.34 a18.2 18.2 0 1 0 36.4 0 a18.2 18.2 0 1 0 -36.4 0zM1755.91 1193.34 a18.2 18.2 0 1 0 36.4 0 a18.2 18.2 0 1 0 -36.4 0zM1598.29 1284.34 a18.2 18.2 0 1 0 36.4 0 a18.2 18.2 0 1 0 -36.4 0zM1913.53 1284.34 a18.2 18.2 0 1 0 36.4 0 a18.2 18.2 0 1 0 -36.4 0zM1913.53 1466.34 a18.2 18.2 0 1 0 36.4 0 a18.2 18.2 0 1 0 -36.4 0zM1755.91 1557.34 a18.2 18.2 0 1 0 36.4 0 a18.2 18.2 0 1 0 -36.4 0zM1598.29 1466.34 a18.2 18.2 0 1 0 36.4 0 a18.2 18.2 0 1 0 -36.4 0zM1755.91 1739.34 a18.2 18.2 0 1 0 36.4 0 a18.2 18.2 0 1 0 -36.4 0zM1913.53 1830.34 a18.2 18.2 0 1 0 36.4 0 a18.2 18.2 0 1 0 -36.4 0zM1913.53 2012.34 a18.2 18.2 0 1 0 36.4 0 a18.2 18.2 0 1 0 -36.4 0zM1755.91 2103.34 a18.2 18.2 0 1 0 36.4 0 a18.2 18.2 0 1 0 -36.4 0zM1598.29 2012.34 a18.2 18.2 0 1 0 36.4 0 a18.2 18.2 0 1 0 -36.4 0zM1598.29 1830.34 a18.2 18.2 0 1 0 36.4 0 a18.2 18.2 0 1 0 -36.4 0z" fill="rgba(6, 80, 156, 0.93)"></path>
    </g>
    <defs>
        <mask id="SvgjsMask2516">
            <rect width="1860" height="1860" fill="#ffffff"></rect>
        </mask>
        <linearGradient x1="0%" y1="100%" x2="100%" y2="0%" gradientUnits="userSpaceOnUse" id="SvgjsLinearGradient2517">
            <stop stop-color="#0e2a47" offset="0"></stop>
            <stop stop-color="rgba(49, 122, 216, 1)" offset="1"></stop>
        </linearGradient>
        <linearGradient x1="1860" y1="930" x2="0" y2="930" gradientUnits="userSpaceOnUse" id="SvgjsLinearGradient2518">
            <stop stop-color="#0e2a47" offset="0"></stop>
            <stop stop-color="rgba(47, 150, 209, 1)" offset="1"></stop>
        </linearGradient>
        <linearGradient x1="0" y1="1860" x2="1860" y2="0" gradientUnits="userSpaceOnUse" id="SvgjsLinearGradient2519">
            <stop stop-color="rgba(17, 187, 210, 1)" offset="0"></stop>
            <stop stop-color="rgba(3, 48, 93, 1)" offset="0.04"></stop>
            <stop stop-color="#03305d" offset="1"></stop>
        </linearGradient>
    </defs>
</svg>